<svg width="1056" height="97" viewBox="0 0 1056 97" fill="none" xmlns="http://www.w3.org/2000/svg">
<path d="M65.5456 9.83799L63.9211 13.4932L63.9211 13.4932L65.5456 9.83799ZM79.0321 21.016L75.6783 23.1959L75.6783 23.196L79.0321 21.016ZM79.0321 55.036L75.6783 52.856L75.6783 52.856L79.0321 55.036ZM65.5456 66.214L63.9211 62.5588L63.9211 62.5588L65.5456 66.214ZM32.7406 70.102V66.102H28.7406V70.102H32.7406ZM32.7406 91V95H36.7406V91H32.7406ZM4.06661 91H0.0666137V95H4.06661V91ZM4.06661 5.94999V1.94999H0.0666137V5.94999H4.06661ZM51.9376 45.4375L54.5716 48.4478L54.6064 48.4174L54.6405 48.3861L51.9376 45.4375ZM51.9376 30.736L49.2347 33.6846L49.2688 33.7159L49.3036 33.7463L51.9376 30.736ZM32.7406 28.063V24.063H28.7406V28.063H32.7406ZM32.7406 47.989H28.7406V51.989H32.7406V47.989ZM45.0121 9.94999C52.4355 9.94999 58.7043 11.1747 63.9211 13.4932L67.1702 6.18275C60.7229 3.3173 53.3028 1.94999 45.0121 1.94999V9.94999ZM63.9211 13.4932C69.1203 15.804 72.9831 19.0494 75.6783 23.1959L82.3859 18.836C78.7631 13.2625 73.6349 9.05598 67.1702 6.18275L63.9211 13.4932ZM75.6783 23.196C78.367 27.3323 79.7706 32.2255 79.7706 38.026H87.7706C87.7706 30.8665 86.0153 24.4197 82.3859 18.836L75.6783 23.196ZM79.7706 38.026C79.7706 43.8265 78.367 48.7197 75.6783 52.856L82.3859 57.216C86.0153 51.6323 87.7706 45.1855 87.7706 38.026H79.7706ZM75.6783 52.856C72.9831 57.0026 69.1203 60.248 63.9211 62.5588L67.1702 69.8692C73.6349 66.996 78.7631 62.7894 82.3859 57.216L75.6783 52.856ZM63.9211 62.5588C58.7043 64.8773 52.4355 66.102 45.0121 66.102V74.102C53.3028 74.102 60.7229 72.7347 67.1702 69.8692L63.9211 62.5588ZM45.0121 66.102H32.7406V74.102H45.0121V66.102ZM28.7406 70.102V91H36.7406V70.102H28.7406ZM32.7406 87H4.06661V95H32.7406V87ZM8.06661 91V5.94999H0.0666137V91H8.06661ZM4.06661 9.94999H45.0121V1.94999H4.06661V9.94999ZM43.1896 51.989C47.5727 51.989 51.6072 51.0417 54.5716 48.4478L49.3036 42.4272C48.3801 43.2353 46.5825 43.989 43.1896 43.989V51.989ZM54.6405 48.3861C57.5734 45.6977 58.8536 42.0653 58.8536 38.026H50.8536C50.8536 40.3047 50.1899 41.6133 49.2347 42.4889L54.6405 48.3861ZM58.8536 38.026C58.8536 33.9931 57.574 30.3528 54.5716 27.7257L49.3036 33.7463C50.1892 34.5212 50.8536 35.7408 50.8536 38.026H58.8536ZM54.6405 27.7874C51.6751 25.0691 47.6121 24.063 43.1896 24.063V32.063C46.5431 32.063 48.3121 32.8389 49.2347 33.6846L54.6405 27.7874ZM43.1896 24.063H32.7406V32.063H43.1896V24.063ZM28.7406 28.063V47.989H36.7406V28.063H28.7406ZM32.7406 51.989H43.1896V43.989H32.7406V51.989ZM177.01 5.94999H181.01V1.94999H177.01V5.94999ZM177.01 91V95H181.01V91H177.01ZM148.336 91H144.336V95H148.336V91ZM148.336 59.653H152.336V55.653H148.336V59.653ZM121.849 59.653V55.653H117.849V59.653H121.849ZM121.849 91V95H125.849V91H121.849ZM93.1745 91H89.1745V95H93.1745V91ZM93.1745 5.94999V1.94999H89.1745V5.94999H93.1745ZM121.849 5.94999H125.849V1.94999H121.849V5.94999ZM121.849 36.082H117.849V40.082H121.849V36.082ZM148.336 36.082V40.082H152.336V36.082H148.336ZM148.336 5.94999V1.94999H144.336V5.94999H148.336ZM173.01 5.94999V91H181.01V5.94999H173.01ZM177.01 87H148.336V95H177.01V87ZM152.336 91V59.653H144.336V91H152.336ZM148.336 55.653H121.849V63.653H148.336V55.653ZM117.849 59.653V91H125.849V59.653H117.849ZM121.849 87H93.1745V95H121.849V87ZM97.1745 91V5.94999H89.1745V91H97.1745ZM93.1745 9.94999H121.849V1.94999H93.1745V9.94999ZM117.849 5.94999V36.082H125.849V5.94999H117.849ZM121.849 40.082H148.336V32.082H121.849V40.082ZM152.336 36.082V5.94999H144.336V36.082H152.336ZM148.336 9.94999H177.01V1.94999H148.336V9.94999ZM210.751 87.2335L212.603 83.6879L210.751 87.2335ZM193.62 71.4385L190.201 73.5144L190.206 73.5235L190.212 73.5326L193.62 71.4385ZM193.62 25.633L197.028 27.7271L197.034 27.718L197.039 27.7089L193.62 25.633ZM260.08 9.7165L261.932 6.17086L261.932 6.17086L260.08 9.7165ZM277.212 25.633L273.793 27.7089L273.798 27.718L273.804 27.7271L277.212 25.633ZM277.212 71.4385L280.62 73.5326L280.626 73.5235L280.631 73.5144L277.212 71.4385ZM260.08 87.2335L261.932 90.7791L261.932 90.7791L260.08 87.2335ZM245.014 67.186L247.072 70.616L247.086 70.6076L247.1 70.5991L245.014 67.186ZM251.94 59.7745L255.462 61.6709L255.472 61.6524L255.481 61.6338L251.94 59.7745ZM251.94 37.297L248.398 39.1563L248.408 39.1749L248.418 39.1934L251.94 37.297ZM245.014 29.8855L242.886 33.272L242.942 33.3073L242.999 33.3406L245.014 29.8855ZM225.696 29.8855L227.754 33.3155L227.768 33.3071L227.782 33.2986L225.696 29.8855ZM218.892 37.297L222.414 39.1934L222.424 39.1749L222.433 39.1563L218.892 37.297ZM218.892 59.7745L215.35 61.6338L215.36 61.6524L215.37 61.6709L218.892 59.7745ZM225.696 67.186L223.567 70.5725L223.623 70.6078L223.68 70.6411L225.696 67.186ZM235.416 88.944C226.834 88.944 219.259 87.1639 212.603 83.6879L208.9 90.7791C216.823 94.9171 225.692 96.944 235.416 96.944V88.944ZM212.603 83.6879C205.925 80.2005 200.764 75.4252 197.028 69.3444L190.212 73.5326C194.737 80.8978 200.998 86.6525 208.9 90.7791L212.603 83.6879ZM197.039 69.3626C193.314 63.2275 191.423 56.3001 191.423 48.475H183.423C183.423 57.6599 185.664 66.0415 190.201 73.5144L197.039 69.3626ZM191.423 48.475C191.423 40.6495 193.314 33.7711 197.028 27.7271L190.212 23.5389C185.664 30.9409 183.423 39.2905 183.423 48.475H191.423ZM197.039 27.7089C200.778 21.55 205.937 16.7431 212.603 13.2621L208.9 6.17086C200.986 10.3039 194.723 16.108 190.201 23.5571L197.039 27.7089ZM212.603 13.2621C219.259 9.78606 226.834 8.006 235.416 8.006V0.00599751C225.692 0.00599751 216.823 2.03293 208.9 6.17086L212.603 13.2621ZM235.416 8.006C243.998 8.006 251.572 9.78606 258.229 13.2621L261.932 6.17086C254.008 2.03293 245.14 0.00599751 235.416 0.00599751V8.006ZM258.229 13.2621C264.895 16.7431 270.053 21.55 273.793 27.7089L280.631 23.5571C276.108 16.108 269.846 10.3039 261.932 6.17086L258.229 13.2621ZM273.804 27.7271C277.518 33.7711 279.408 40.6495 279.408 48.475H287.408C287.408 39.2905 285.168 30.9409 280.62 23.5389L273.804 27.7271ZM279.408 48.475C279.408 56.3001 277.518 63.2275 273.793 69.3626L280.631 73.5144C285.168 66.0415 287.408 57.6599 287.408 48.475H279.408ZM273.804 69.3444C270.067 75.4252 264.907 80.2005 258.229 83.6879L261.932 90.7791C269.834 86.6525 276.094 80.8978 280.62 73.5326L273.804 69.3444ZM258.229 83.6879C251.572 87.1639 243.998 88.944 235.416 88.944V96.944C245.14 96.944 254.008 94.9171 261.932 90.7791L258.229 83.6879ZM235.416 73.7375C239.646 73.7375 243.567 72.719 247.072 70.616L242.956 63.756C240.791 65.055 238.314 65.7375 235.416 65.7375V73.7375ZM247.1 70.5991C250.651 68.4289 253.442 65.4213 255.462 61.6709L248.418 57.8781C247.035 60.4457 245.209 62.3791 242.929 63.7729L247.1 70.5991ZM255.481 61.6338C257.532 57.7286 258.491 53.3036 258.491 48.475H250.491C250.491 52.2324 249.75 55.3404 248.398 57.9152L255.481 61.6338ZM258.491 48.475C258.491 43.6496 257.533 39.2468 255.462 35.4006L248.418 39.1934C249.749 41.6652 250.491 44.7144 250.491 48.475H258.491ZM255.481 35.4377C253.462 31.5911 250.649 28.5413 247.03 26.4304L242.999 33.3406C245.212 34.6317 247.016 36.5229 248.398 39.1563L255.481 35.4377ZM247.143 26.499C243.629 24.29 239.682 23.2125 235.416 23.2125V31.2125C238.277 31.2125 240.73 31.917 242.886 33.272L247.143 26.499ZM235.416 23.2125C231.149 23.2125 227.182 24.2897 223.61 26.4724L227.782 33.2986C230.042 31.9173 232.555 31.2125 235.416 31.2125V23.2125ZM223.638 26.4555C220.108 28.5736 217.355 31.6195 215.35 35.4377L222.433 39.1563C223.831 36.4945 225.614 34.5994 227.754 33.3155L223.638 26.4555ZM215.37 35.4006C213.299 39.2468 212.34 43.6496 212.34 48.475H220.34C220.34 44.7144 221.083 41.6652 222.414 39.1934L215.37 35.4006ZM212.34 48.475C212.34 53.3036 213.3 57.7286 215.35 61.6338L222.433 57.9152C221.082 55.3404 220.34 52.2324 220.34 48.475H212.34ZM215.37 61.6709C217.375 65.3937 220.105 68.3963 223.567 70.5725L227.825 63.7995C225.617 62.4117 223.811 60.4733 222.414 57.8781L215.37 61.6709ZM223.68 70.6411C227.243 72.7191 231.185 73.7375 235.416 73.7375V65.7375C232.519 65.7375 229.981 65.0549 227.711 63.7309L223.68 70.6411ZM311.097 28.1845H315.097V24.1845H311.097V28.1845ZM286.19 28.1845H282.19V32.1845H286.19V28.1845ZM286.19 5.94999V1.94999H282.19V5.94999H286.19ZM364.679 5.94999H368.679V1.94999H364.679V5.94999ZM364.679 28.1845V32.1845H368.679V28.1845H364.679ZM339.771 28.1845V24.1845H335.771V28.1845H339.771ZM339.771 91V95H343.771V91H339.771ZM311.097 91H307.097V95H311.097V91ZM311.097 24.1845H286.19V32.1845H311.097V24.1845ZM290.19 28.1845V5.94999H282.19V28.1845H290.19ZM286.19 9.94999H364.679V1.94999H286.19V9.94999ZM360.679 5.94999V28.1845H368.679V5.94999H360.679ZM364.679 24.1845H339.771V32.1845H364.679V24.1845ZM335.771 28.1845V91H343.771V28.1845H335.771ZM339.771 87H311.097V95H339.771V87ZM315.097 91V28.1845H307.097V91H315.097ZM390.866 87.2335L392.717 83.6879L390.866 87.2335ZM373.734 71.4385L370.315 73.5144L370.321 73.5235L370.326 73.5326L373.734 71.4385ZM373.734 25.633L377.142 27.7271L377.148 27.718L377.153 27.7089L373.734 25.633ZM440.195 9.7165L442.046 6.17086L442.046 6.17086L440.195 9.7165ZM457.326 25.633L453.907 27.7089L453.913 27.718L453.918 27.7271L457.326 25.633ZM457.326 71.4385L460.734 73.5326L460.74 73.5235L460.745 73.5144L457.326 71.4385ZM440.195 87.2335L442.046 90.7791L442.046 90.7791L440.195 87.2335ZM425.129 67.186L427.187 70.616L427.201 70.6076L427.214 70.5991L425.129 67.186ZM432.054 59.7745L435.576 61.6709L435.586 61.6524L435.596 61.6338L432.054 59.7745ZM432.054 37.297L428.513 39.1563L428.522 39.1749L428.532 39.1934L432.054 37.297ZM425.129 29.8855L423 33.272L423.056 33.3073L423.113 33.3406L425.129 29.8855ZM405.81 29.8855L407.868 33.3155L407.882 33.3071L407.896 33.2986L405.81 29.8855ZM399.006 37.297L402.528 39.1934L402.538 39.1749L402.548 39.1563L399.006 37.297ZM399.006 59.7745L395.465 61.6338L395.474 61.6524L395.484 61.6709L399.006 59.7745ZM405.81 67.186L403.681 70.5725L403.738 70.6078L403.795 70.6411L405.81 67.186ZM415.53 88.944C406.948 88.944 399.374 87.1639 392.717 83.6879L389.014 90.7791C396.938 94.9171 405.806 96.944 415.53 96.944V88.944ZM392.717 83.6879C386.039 80.2005 380.879 75.4252 377.142 69.3444L370.326 73.5326C374.852 80.8978 381.112 86.6525 389.014 90.7791L392.717 83.6879ZM377.153 69.3626C373.428 63.2275 371.538 56.3001 371.538 48.475H363.538C363.538 57.6599 365.778 66.0415 370.315 73.5144L377.153 69.3626ZM371.538 48.475C371.538 40.6495 373.428 33.7711 377.142 27.7271L370.326 23.5389C365.778 30.9409 363.538 39.2905 363.538 48.475H371.538ZM377.153 27.7089C380.893 21.55 386.052 16.7431 392.717 13.2621L389.014 6.17086C381.1 10.3039 374.838 16.108 370.315 23.5571L377.153 27.7089ZM392.717 13.2621C399.374 9.78606 406.948 8.006 415.53 8.006V0.00599751C405.806 0.00599751 396.938 2.03293 389.014 6.17086L392.717 13.2621ZM415.53 8.006C424.112 8.006 431.687 9.78606 438.343 13.2621L442.046 6.17086C434.123 2.03293 425.254 0.00599751 415.53 0.00599751V8.006ZM438.343 13.2621C445.009 16.7431 450.168 21.55 453.907 27.7089L460.745 23.5571C456.223 16.108 449.961 10.3039 442.046 6.17086L438.343 13.2621ZM453.918 27.7271C457.632 33.7711 459.523 40.6495 459.523 48.475H467.523C467.523 39.2905 465.282 30.9409 460.734 23.5389L453.918 27.7271ZM459.523 48.475C459.523 56.3001 457.632 63.2275 453.907 69.3626L460.745 73.5144C465.282 66.0415 467.523 57.6599 467.523 48.475H459.523ZM453.918 69.3444C450.182 75.4252 445.021 80.2005 438.343 83.6879L442.046 90.7791C449.948 86.6525 456.209 80.8978 460.734 73.5326L453.918 69.3444ZM438.343 83.6879C431.687 87.1639 424.112 88.944 415.53 88.944V96.944C425.254 96.944 434.123 94.9171 442.046 90.7791L438.343 83.6879ZM415.53 73.7375C419.761 73.7375 423.682 72.719 427.187 70.616L423.071 63.756C420.906 65.055 418.428 65.7375 415.53 65.7375V73.7375ZM427.214 70.5991C430.766 68.4289 433.557 65.4213 435.576 61.6709L428.532 57.8781C427.15 60.4457 425.324 62.3791 423.043 63.7729L427.214 70.5991ZM435.596 61.6338C437.646 57.7286 438.606 53.3036 438.606 48.475H430.606C430.606 52.2324 429.864 55.3404 428.513 57.9152L435.596 61.6338ZM438.606 48.475C438.606 43.6496 437.647 39.2468 435.576 35.4006L428.532 39.1934C429.863 41.6652 430.606 44.7144 430.606 48.475H438.606ZM435.596 35.4377C433.576 31.5911 430.763 28.5413 427.144 26.4304L423.113 33.3406C425.326 34.6317 427.13 36.5229 428.513 39.1563L435.596 35.4377ZM427.257 26.499C423.743 24.29 419.797 23.2125 415.53 23.2125V31.2125C418.392 31.2125 420.844 31.917 423 33.272L427.257 26.499ZM415.53 23.2125C411.263 23.2125 407.296 24.2897 403.724 26.4724L407.896 33.2986C410.156 31.9173 412.669 31.2125 415.53 31.2125V23.2125ZM403.752 26.4555C400.222 28.5736 397.469 31.6195 395.465 35.4377L402.548 39.1563C403.945 36.4945 405.728 34.5994 407.868 33.3155L403.752 26.4555ZM395.484 35.4006C393.413 39.2468 392.455 43.6496 392.455 48.475H400.455C400.455 44.7144 401.197 41.6652 402.528 39.1934L395.484 35.4006ZM392.455 48.475C392.455 53.3036 393.414 57.7286 395.465 61.6338L402.548 57.9152C401.196 55.3404 400.455 52.2324 400.455 48.475H392.455ZM395.484 61.6709C397.489 65.3937 400.219 68.3963 403.681 70.5725L407.939 63.7995C405.731 62.4117 403.925 60.4733 402.528 57.8781L395.484 61.6709ZM403.795 70.6411C407.357 72.7191 411.299 73.7375 415.53 73.7375V65.7375C412.633 65.7375 410.095 65.0549 407.826 63.7309L403.795 70.6411ZM530.184 46.1665V42.1665H526.184V46.1665H530.184ZM555.092 46.1665H559.092V42.1665H555.092V46.1665ZM555.092 82.1305L557.371 85.4174L559.092 84.2242V82.1305H555.092ZM493.613 87.355L491.745 90.8921L491.761 90.9003L491.776 90.9084L493.613 87.355ZM476.603 71.56L473.166 73.6059L473.18 73.6301L473.195 73.6541L476.603 71.56ZM476.603 25.5115L473.184 23.4356L473.177 23.4474L476.603 25.5115ZM493.734 9.7165L495.555 13.2782L495.562 13.2744L495.57 13.2705L493.734 9.7165ZM540.998 8.25849L539.411 11.9304L539.438 11.9421L539.466 11.9535L540.998 8.25849ZM557.522 20.4085L560.166 23.4102L563.06 20.8608L560.618 17.8755L557.522 20.4085ZM539.175 36.568L536.138 39.1712L538.777 42.2494L541.819 39.5697L539.175 36.568ZM505.034 32.923L507.893 35.7209L507.893 35.7208L505.034 32.923ZM504.912 63.9055L501.994 66.6413L502.009 66.6573L502.024 66.6731L504.912 63.9055ZM530.184 67.672L531.716 71.367L534.184 70.3437V67.672H530.184ZM530.184 50.1665H555.092V42.1665H530.184V50.1665ZM551.092 46.1665V82.1305H559.092V46.1665H551.092ZM552.812 78.8436C548.2 82.0427 542.784 84.54 536.516 86.2981L538.676 94.0009C545.692 92.033 551.94 89.1843 557.371 85.4174L552.812 78.8436ZM536.516 86.2981C530.198 88.0702 524.041 88.944 518.034 88.944V96.944C524.826 96.944 531.71 95.9548 538.676 94.0009L536.516 86.2981ZM518.034 88.944C509.525 88.944 502.027 87.201 495.45 83.8016L491.776 90.9084C499.617 94.961 508.4 96.944 518.034 96.944V88.944ZM495.481 83.8179C488.883 80.3337 483.754 75.5579 480.011 69.4659L473.195 73.6541C477.714 81.0081 483.925 86.7623 491.745 90.8921L495.481 83.8179ZM480.04 69.5141C476.389 63.3808 474.528 56.4036 474.528 48.475H466.528C466.528 57.7184 468.716 66.1312 473.166 73.6059L480.04 69.5141ZM474.528 48.475C474.528 40.5458 476.389 33.6177 480.029 27.5755L473.177 23.4474C468.716 30.8513 466.528 39.2322 466.528 48.475H474.528ZM480.022 27.5874C483.757 21.4361 488.905 16.6769 495.555 13.2782L491.914 6.15476C483.983 10.2081 477.711 15.9789 473.184 23.4356L480.022 27.5874ZM495.57 13.2705C502.312 9.78842 509.973 8.006 518.642 8.006V0.00599751C508.842 0.00599751 499.899 2.03057 491.899 6.16253L495.57 13.2705ZM518.642 8.006C526.529 8.006 533.428 9.34498 539.411 11.9304L542.585 4.58662C535.446 1.50201 527.44 0.00599751 518.642 0.00599751V8.006ZM539.466 11.9535C545.525 14.4656 550.487 18.127 554.426 22.9414L560.618 17.8755C555.809 11.998 549.755 7.55934 542.53 4.56353L539.466 11.9535ZM554.878 17.4068L536.532 33.5663L541.819 39.5697L560.166 23.4102L554.878 17.4068ZM542.212 33.9648C536.204 26.9552 528.781 23.2125 520.1 23.2125V31.2125C526.161 31.2125 531.455 33.7068 536.138 39.1712L542.212 33.9648ZM520.1 23.2125C512.922 23.2125 506.792 25.4077 502.175 30.1251L507.893 35.7208C510.728 32.8243 514.642 31.2125 520.1 31.2125V23.2125ZM502.175 30.1251C497.556 34.8448 495.445 41.1244 495.445 48.475H503.445C503.445 42.7036 505.06 38.6152 507.893 35.7209L502.175 30.1251ZM495.445 48.475C495.445 55.6741 497.519 61.868 501.994 66.6413L507.831 61.1697C505.016 58.167 503.445 54.0739 503.445 48.475H495.445ZM502.024 66.6731C506.615 71.4637 512.66 73.7375 519.735 73.7375V65.7375C514.499 65.7375 510.661 64.1233 507.8 61.1379L502.024 66.6731ZM519.735 73.7375C523.899 73.7375 527.903 72.9482 531.716 71.367L528.652 63.977C525.824 65.1498 522.862 65.7375 519.735 65.7375V73.7375ZM534.184 67.672V46.1665H526.184V67.672H534.184ZM603.759 69.616L607.073 67.3755L605.883 65.616H603.759V69.616ZM595.983 69.616V65.616H591.983V69.616H595.983ZM595.983 91V95H599.983V91H595.983ZM567.309 91H563.309V95H567.309V91ZM567.309 5.94999V1.94999H563.309V5.94999H567.309ZM628.788 9.83799L627.164 13.4932L627.164 13.4932L628.788 9.83799ZM642.275 21.016L638.921 23.1959L638.921 23.196L642.275 21.016ZM642.882 53.9425L639.463 51.8666L639.463 51.8666L642.882 53.9425ZM630.975 64.756L629.142 61.2008L625.126 63.2714L627.668 67.0065L630.975 64.756ZM648.836 91V95H656.396L652.143 88.7495L648.836 91ZM618.218 91L614.904 93.2405L616.094 95H618.218V91ZM615.18 30.736L612.477 33.6846L612.511 33.7159L612.546 33.7463L615.18 30.736ZM595.983 28.063V24.063H591.983V28.063H595.983ZM595.983 47.989H591.983V51.989H595.983V47.989ZM615.18 45.4375L617.814 48.4478L617.849 48.4174L617.883 48.3861L615.18 45.4375ZM603.759 65.616H595.983V73.616H603.759V65.616ZM591.983 69.616V91H599.983V69.616H591.983ZM595.983 87H567.309V95H595.983V87ZM571.309 91V5.94999H563.309V91H571.309ZM567.309 9.94999H608.255V1.94999H567.309V9.94999ZM608.255 9.94999C615.678 9.94999 621.947 11.1747 627.164 13.4932L630.413 6.18275C623.966 3.3173 616.545 1.94999 608.255 1.94999V9.94999ZM627.164 13.4932C632.363 15.804 636.226 19.0494 638.921 23.1959L645.629 18.836C642.006 13.2625 636.878 9.05598 630.413 6.18275L627.164 13.4932ZM638.921 23.196C641.61 27.3323 643.013 32.2255 643.013 38.026H651.013C651.013 30.8665 649.258 24.4197 645.629 18.836L638.921 23.196ZM643.013 38.026C643.013 43.477 641.785 48.0428 639.463 51.8666L646.301 56.0184C649.488 50.7702 651.013 44.725 651.013 38.026H643.013ZM639.463 51.8666C637.129 55.7113 633.738 58.8309 629.142 61.2008L632.808 68.3112C638.58 65.3351 643.128 61.2457 646.301 56.0184L639.463 51.8666ZM627.668 67.0065L645.529 93.2505L652.143 88.7495L634.282 62.5055L627.668 67.0065ZM648.836 87H618.218V95H648.836V87ZM621.531 88.7595L607.073 67.3755L600.446 71.8565L614.904 93.2405L621.531 88.7595ZM622.096 38.026C622.096 33.9931 620.817 30.3528 617.814 27.7257L612.546 33.7463C613.432 34.5212 614.096 35.7408 614.096 38.026H622.096ZM617.883 27.7874C614.918 25.0691 610.855 24.063 606.432 24.063V32.063C609.786 32.063 611.555 32.8389 612.477 33.6846L617.883 27.7874ZM606.432 24.063H595.983V32.063H606.432V24.063ZM591.983 28.063V47.989H599.983V28.063H591.983ZM595.983 51.989H606.432V43.989H595.983V51.989ZM606.432 51.989C610.815 51.989 614.85 51.0417 617.814 48.4478L612.546 42.4272C611.623 43.2353 609.825 43.989 606.432 43.989V51.989ZM617.883 48.3861C620.816 45.6977 622.096 42.0653 622.096 38.026H614.096C614.096 40.3047 613.433 41.6133 612.477 42.4889L617.883 48.3861ZM715.797 76.177L719.529 74.739L718.542 72.177H715.797V76.177ZM683.478 76.177V72.177H680.732L679.745 74.739L683.478 76.177ZM677.767 91V95H680.513L681.5 92.438L677.767 91ZM648.607 91L644.942 89.3978L642.493 95H648.607V91ZM685.786 5.94999V1.94999H683.169L682.121 4.34782L685.786 5.94999ZM713.974 5.94999L717.639 4.34782L716.591 1.94999H713.974V5.94999ZM751.153 91V95H757.267L754.818 89.3978L751.153 91ZM721.507 91L717.774 92.438L718.761 95H721.507V91ZM707.899 55.522V59.522H713.733L711.63 54.0804L707.899 55.522ZM699.637 34.138L703.368 32.6964L699.637 23.0392L695.906 32.6964L699.637 34.138ZM691.375 55.522L687.644 54.0804L685.541 59.522H691.375V55.522ZM715.797 72.177H683.478V80.177H715.797V72.177ZM679.745 74.739L674.034 89.562L681.5 92.438L687.21 77.615L679.745 74.739ZM677.767 87H648.607V95H677.767V87ZM652.272 92.6022L689.451 7.55217L682.121 4.34782L644.942 89.3978L652.272 92.6022ZM685.786 9.94999H713.974V1.94999H685.786V9.94999ZM710.309 7.55217L747.488 92.6022L754.818 89.3978L717.639 4.34782L710.309 7.55217ZM751.153 87H721.507V95H751.153V87ZM725.24 89.562L719.529 74.739L712.064 77.615L717.774 92.438L725.24 89.562ZM711.63 54.0804L703.368 32.6964L695.906 35.5796L704.168 56.9636L711.63 54.0804ZM695.906 32.6964L687.644 54.0804L695.106 56.9636L703.368 35.5796L695.906 32.6964ZM691.375 59.522H707.899V51.522H691.375V59.522ZM817.208 9.83799L815.584 13.4932L815.584 13.4932L817.208 9.83799ZM830.695 21.016L827.341 23.1959L827.341 23.196L830.695 21.016ZM830.695 55.036L827.341 52.856L827.341 52.856L830.695 55.036ZM817.208 66.214L815.584 62.5588L815.584 62.5588L817.208 66.214ZM784.403 70.102V66.102H780.403V70.102H784.403ZM784.403 91V95H788.403V91H784.403ZM755.729 91H751.729V95H755.729V91ZM755.729 5.94999V1.94999H751.729V5.94999H755.729ZM803.6 45.4375L806.234 48.4478L806.269 48.4174L806.303 48.3861L803.6 45.4375ZM803.6 30.736L800.897 33.6846L800.931 33.7159L800.966 33.7463L803.6 30.736ZM784.403 28.063V24.063H780.403V28.063H784.403ZM784.403 47.989H780.403V51.989H784.403V47.989ZM796.675 9.94999C804.098 9.94999 810.367 11.1747 815.584 13.4932L818.833 6.18275C812.386 3.3173 804.965 1.94999 796.675 1.94999V9.94999ZM815.584 13.4932C820.783 15.804 824.646 19.0494 827.341 23.1959L834.048 18.836C830.426 13.2625 825.298 9.05598 818.833 6.18275L815.584 13.4932ZM827.341 23.196C830.03 27.3323 831.433 32.2255 831.433 38.026H839.433C839.433 30.8665 837.678 24.4197 834.048 18.836L827.341 23.196ZM831.433 38.026C831.433 43.8265 830.03 48.7197 827.341 52.856L834.048 57.216C837.678 51.6323 839.433 45.1855 839.433 38.026H831.433ZM827.341 52.856C824.646 57.0026 820.783 60.248 815.584 62.5588L818.833 69.8692C825.298 66.996 830.426 62.7894 834.048 57.216L827.341 52.856ZM815.584 62.5588C810.367 64.8773 804.098 66.102 796.675 66.102V74.102C804.965 74.102 812.386 72.7347 818.833 69.8692L815.584 62.5588ZM796.675 66.102H784.403V74.102H796.675V66.102ZM780.403 70.102V91H788.403V70.102H780.403ZM784.403 87H755.729V95H784.403V87ZM759.729 91V5.94999H751.729V91H759.729ZM755.729 9.94999H796.675V1.94999H755.729V9.94999ZM794.852 51.989C799.235 51.989 803.27 51.0417 806.234 48.4478L800.966 42.4272C800.043 43.2353 798.245 43.989 794.852 43.989V51.989ZM806.303 48.3861C809.236 45.6977 810.516 42.0653 810.516 38.026H802.516C802.516 40.3047 801.852 41.6133 800.897 42.4889L806.303 48.3861ZM810.516 38.026C810.516 33.9931 809.237 30.3528 806.234 27.7257L800.966 33.7463C801.852 34.5212 802.516 35.7408 802.516 38.026H810.516ZM806.303 27.7874C803.338 25.0691 799.275 24.063 794.852 24.063V32.063C798.206 32.063 799.975 32.8389 800.897 33.6846L806.303 27.7874ZM794.852 24.063H784.403V32.063H794.852V24.063ZM780.403 28.063V47.989H788.403V28.063H780.403ZM784.403 51.989H794.852V43.989H784.403V51.989ZM928.672 5.94999H932.672V1.94999H928.672V5.94999ZM928.672 91V95H932.672V91H928.672ZM899.998 91H895.998V95H899.998V91ZM899.998 59.653H903.998V55.653H899.998V59.653ZM873.511 59.653V55.653H869.511V59.653H873.511ZM873.511 91V95H877.511V91H873.511ZM844.837 91H840.837V95H844.837V91ZM844.837 5.94999V1.94999H840.837V5.94999H844.837ZM873.511 5.94999H877.511V1.94999H873.511V5.94999ZM873.511 36.082H869.511V40.082H873.511V36.082ZM899.998 36.082V40.082H903.998V36.082H899.998ZM899.998 5.94999V1.94999H895.998V5.94999H899.998ZM924.672 5.94999V91H932.672V5.94999H924.672ZM928.672 87H899.998V95H928.672V87ZM903.998 91V59.653H895.998V91H903.998ZM899.998 55.653H873.511V63.653H899.998V55.653ZM869.511 59.653V91H877.511V59.653H869.511ZM873.511 87H844.837V95H873.511V87ZM848.837 91V5.94999H840.837V91H848.837ZM844.837 9.94999H873.511V1.94999H844.837V9.94999ZM869.511 5.94999V36.082H877.511V5.94999H869.511ZM873.511 40.082H899.998V32.082H873.511V40.082ZM903.998 36.082V5.94999H895.998V36.082H903.998ZM899.998 9.94999H928.672V1.94999H899.998V9.94999ZM993.032 60.139L989.59 58.1015L989.032 59.0439V60.139H993.032ZM993.032 91V95H997.032V91H993.032ZM964.358 91H960.358V95H964.358V91ZM964.358 59.7745H968.358V58.673L967.794 57.7268L964.358 59.7745ZM932.282 5.94999V1.94999H925.242L928.846 7.9977L932.282 5.94999ZM962.536 5.94999L965.979 3.91508L964.818 1.94999H962.536V5.94999ZM979.91 35.353L976.466 37.3879L979.898 43.1954L983.347 37.3984L979.91 35.353ZM997.406 5.94999V1.94999H995.132L993.969 3.90456L997.406 5.94999ZM1025.11 5.94999L1028.55 7.98751L1032.12 1.94999H1025.11V5.94999ZM989.032 60.139V91H997.032V60.139H989.032ZM993.032 87H964.358V95H993.032V87ZM968.358 91V59.7745H960.358V91H968.358ZM967.794 57.7268L935.718 3.90229L928.846 7.9977L960.922 61.8222L967.794 57.7268ZM932.282 9.94999H962.536V1.94999H932.282V9.94999ZM959.092 7.98491L976.466 37.3879L983.354 33.3181L965.979 3.91508L959.092 7.98491ZM983.347 37.3984L1000.84 7.99543L993.969 3.90456L976.473 33.3076L983.347 37.3984ZM997.406 9.94999H1025.11V1.94999H997.406V9.94999ZM1021.67 3.91248L989.59 58.1015L996.474 62.1765L1028.55 7.98751L1021.67 3.91248ZM1023.88 87.841L1021.06 90.6694L1021.09 90.7076L1021.13 90.7448L1023.88 87.841ZM1023.88 65.242L1026.63 68.1479L1026.63 68.1458L1023.88 65.242ZM1046.85 65.242L1044.06 68.1089L1044.1 68.1471L1044.14 68.1842L1046.85 65.242ZM1046.85 87.841L1049.64 90.7079L1049.64 90.7069L1046.85 87.841ZM1035.43 88.215C1031.73 88.215 1028.9 87.0838 1026.63 84.9372L1021.13 90.7448C1025.02 94.4302 1029.88 96.215 1035.43 96.215V88.215ZM1026.71 85.0126C1024.54 82.8365 1023.39 80.0805 1023.39 76.42H1015.39C1015.39 81.9935 1017.24 86.8515 1021.06 90.6694L1026.71 85.0126ZM1023.39 76.42C1023.39 72.7579 1024.53 70.1335 1026.63 68.1479L1021.13 62.3361C1017.24 66.0205 1015.39 70.8481 1015.39 76.42H1023.39ZM1026.63 68.1458C1028.9 65.9992 1031.73 64.868 1035.43 64.868V56.868C1029.88 56.868 1025.02 58.6528 1021.13 62.3382L1026.63 68.1458ZM1035.43 64.868C1039.12 64.868 1041.89 65.9982 1044.06 68.1089L1049.64 62.3751C1045.81 58.6538 1040.97 56.868 1035.43 56.868V64.868ZM1044.14 68.1842C1046.3 70.1789 1047.46 72.7924 1047.46 76.42H1055.46C1055.46 70.8136 1053.55 65.9751 1049.56 62.2998L1044.14 68.1842ZM1047.46 76.42C1047.46 80.0472 1046.3 82.7914 1044.06 84.9751L1049.64 90.7069C1053.55 86.8966 1055.46 82.0268 1055.46 76.42H1047.46ZM1044.06 84.9741C1041.89 87.0848 1039.12 88.215 1035.43 88.215V96.215C1040.97 96.215 1045.81 94.4292 1049.64 90.7079L1044.06 84.9741Z" fill="white"/>
</svg>
